<svg width="30" height="21" viewBox="0 0 30 21" fill="none" xmlns="http://www.w3.org/2000/svg">
<path d="M29.4895 2.88053L11.0334 19.7193C10.8726 19.8665 10.6816 19.9832 10.4713 20.0629C10.261 20.1426 10.0355 20.1836 9.80779 20.1836C9.58006 20.1836 9.35457 20.1426 9.14426 20.0629C8.93394 19.9832 8.74294 19.8665 8.58219 19.7193L0.507659 12.3523C0.346712 12.2055 0.219041 12.0312 0.131936 11.8393C0.0448319 11.6474 2.39831e-09 11.4418 0 11.2341C-2.39831e-09 11.0265 0.044832 10.8208 0.131936 10.629C0.219041 10.4371 0.346712 10.2628 0.507659 10.1159C0.668607 9.96909 0.85968 9.85261 1.06997 9.77314C1.28026 9.69366 1.50564 9.65276 1.73326 9.65276C1.96087 9.65276 2.18626 9.69366 2.39655 9.77314C2.60684 9.85261 2.79791 9.96909 2.95886 10.1159L9.80923 16.366L27.0411 0.646766C27.3662 0.350202 27.807 0.183594 28.2667 0.183594C28.7264 0.183594 29.1673 0.350202 29.4923 0.646766C29.8174 0.943331 30 1.34556 30 1.76497C30 2.18437 29.8174 2.5866 29.4923 2.88316L29.4895 2.88053Z" fill="#673CC2"/>
</svg>
