<svg width="57" height="57" viewBox="0 0 57 57" fill="none" xmlns="http://www.w3.org/2000/svg">
<path d="M45.2422 11.6614C43.0648 9.46196 40.4712 7.7181 37.6128 6.53151C34.7544 5.34492 31.6883 4.73936 28.5934 4.75014C15.6259 4.75014 5.05719 15.3189 5.05719 28.2864C5.05719 32.4426 6.14969 36.4801 8.19219 40.0426L4.86719 52.2501L17.3359 48.9726C20.7797 50.8489 24.6509 51.8464 28.5934 51.8464C41.5609 51.8464 52.1297 41.2776 52.1297 28.3101C52.1297 22.0164 49.6834 16.1026 45.2422 11.6614ZM28.5934 47.8564C25.0784 47.8564 21.6347 46.9064 18.6184 45.1251L17.9059 44.6976L10.4959 46.6451L12.4672 39.4251L11.9922 38.6889C10.0393 35.5704 9.0024 31.9658 8.99969 28.2864C8.99969 17.5039 17.7872 8.71639 28.5697 8.71639C33.7947 8.71639 38.7109 10.7589 42.3922 14.4639C44.215 16.2783 45.6595 18.4365 46.642 20.8133C47.6245 23.1901 48.1255 25.7383 48.1159 28.3101C48.1634 39.0926 39.3759 47.8564 28.5934 47.8564ZM39.3284 33.2264C38.7347 32.9414 35.8372 31.5164 35.3147 31.3026C34.7684 31.1126 34.3884 31.0176 33.9847 31.5876C33.5809 32.1814 32.4647 33.5114 32.1322 33.8914C31.7997 34.2951 31.4434 34.3426 30.8497 34.0339C30.2559 33.7489 28.3559 33.1076 26.1234 31.1126C24.3659 29.5451 23.2022 27.6214 22.8459 27.0276C22.5134 26.4339 22.7984 26.1251 23.1072 25.8164C23.3684 25.5551 23.7009 25.1276 23.9859 24.7951C24.2709 24.4626 24.3897 24.2014 24.5797 23.8214C24.7697 23.4176 24.6747 23.0851 24.5322 22.8001C24.3897 22.5151 23.2022 19.6176 22.7272 18.4301C22.2522 17.2901 21.7534 17.4326 21.3972 17.4089H20.2572C19.8534 17.4089 19.2359 17.5514 18.6897 18.1451C18.1672 18.7389 16.6472 20.1639 16.6472 23.0614C16.6472 25.9589 18.7609 28.7614 19.0459 29.1414C19.3309 29.5451 23.2022 35.4826 29.0922 38.0239C30.4934 38.6414 31.5859 38.9976 32.4409 39.2589C33.8422 39.7101 35.1247 39.6389 36.1459 39.4964C37.2859 39.3301 39.6372 38.0714 40.1122 36.6939C40.6109 35.3164 40.6109 34.1526 40.4447 33.8914C40.2784 33.6301 39.9222 33.5114 39.3284 33.2264Z" fill="black"/>
</svg>
